<?xml version="1.0" standalone="no"?>
<!DOCTYPE svg PUBLIC "-//W3C//DTD SVG 20010904//EN"
 "http://www.w3.org/TR/2001/REC-SVG-20010904/DTD/svg10.dtd">
<svg version="1.0" xmlns="http://www.w3.org/2000/svg"
 width="467.000000pt" height="467.000000pt" viewBox="0 0 467.000000 467.000000"
 preserveAspectRatio="xMidYMid meet">
<metadata>
Created by potrace 1.11, written by Peter Selinger 2001-2013
</metadata>
<g transform="translate(0.000000,467.000000) scale(0.100000,-0.100000)"
fill="#000000" stroke="none">
<path d="M1210 4614 c-315 -48 -555 -165 -768 -376 -357 -354 -483 -867 -330
-1348 50 -158 124 -293 235 -433 l54 -67 72 65 c361 332 872 437 1334 274 169
-60 318 -150 445 -268 l75 -70 31 32 c97 102 202 286 256 448 49 146 67 259
67 424 0 164 -18 278 -66 422 -156 466 -552 806 -1034 887 -85 14 -302 20
-371 10z m340 -782 c145 -51 301 -161 424 -299 l47 -52 -63 -66 c-139 -149
-323 -266 -473 -301 -217 -50 -460 48 -687 278 -43 43 -78 84 -78 92 0 22 192
200 276 255 184 121 380 154 554 93z"/>
<path d="M1297 3770 c-91 -23 -173 -88 -211 -170 -32 -69 -29 -179 6 -246 94
-179 339 -218 483 -78 64 62 89 121 88 209 0 43 -7 85 -17 109 -25 56 -100
131 -154 154 -57 25 -144 34 -195 22z m177 -109 c16 -9 43 -33 60 -54 27 -34
31 -46 31 -102 0 -56 -4 -68 -31 -102 -44 -53 -85 -75 -144 -75 -99 0 -180 80
-180 177 0 134 148 221 264 156z"/>
<path d="M3150 4613 c-255 -40 -468 -134 -663 -291 l-67 -55 53 -56 c173 -182
294 -417 344 -669 25 -129 23 -366 -6 -499 -50 -240 -165 -462 -324 -629 l-68
-72 63 -53 c239 -200 523 -301 843 -302 358 -1 667 122 924 368 483 464 545
1208 143 1740 -70 92 -224 238 -315 299 -163 108 -348 182 -527 211 -87 14
-332 19 -400 8z m429 -729 l31 -26 0 -249 c0 -159 4 -249 10 -249 6 0 10 62
10 165 0 208 10 235 90 235 85 0 90 -18 90 -317 l0 -248 61 68 c64 71 109 100
171 111 30 5 41 3 58 -14 31 -31 25 -65 -19 -113 -21 -23 -93 -123 -159 -222
-66 -99 -137 -197 -159 -217 -44 -43 -120 -83 -183 -97 -92 -21 -257 -8 -325
26 -53 27 -114 95 -137 153 -22 52 -23 71 -26 380 -3 320 -3 326 18 353 27 34
80 37 110 7 18 -18 20 -33 20 -165 0 -84 4 -145 9 -145 6 0 11 90 13 220 3
211 4 220 25 241 31 32 80 30 110 -5 22 -26 23 -32 23 -222 0 -123 4 -194 10
-194 6 0 10 89 10 248 0 259 1 266 45 290 32 18 61 14 94 -14z"/>
<path d="M1154 2635 c-90 -16 -243 -62 -326 -99 -271 -120 -518 -360 -648
-631 -88 -184 -130 -366 -130 -569 0 -645 451 -1180 1095 -1302 190 -36 448
-17 645 47 148 47 356 166 458 259 l33 31 -71 76 c-167 179 -282 412 -326 663
-22 123 -21 325 0 450 42 240 164 485 331 667 l65 72 -67 54 c-174 138 -352
224 -568 272 -100 23 -387 28 -491 10z m286 -674 c113 -43 203 -142 242 -265
15 -47 19 -82 16 -156 -5 -115 -27 -171 -117 -290 -74 -99 -92 -149 -89 -260
2 -101 -10 -150 -53 -208 -92 -126 -260 -131 -363 -11 -45 53 -63 110 -70 230
-3 53 -18 165 -32 250 -47 288 -44 397 17 518 38 76 129 162 201 190 70 27
180 28 248 2z"/>
<path d="M1275 1821 c-130 -32 -204 -153 -192 -313 9 -115 47 -339 63 -370 21
-41 62 -68 104 -68 130 0 173 218 70 357 -31 42 -115 93 -153 93 -17 0 -19 6
-15 59 7 98 79 171 168 171 61 0 109 -28 144 -84 38 -60 41 -144 8 -200 -21
-35 -21 -38 -6 -62 22 -32 34 -27 63 26 17 31 26 64 29 117 4 67 2 79 -27 137
-36 75 -83 114 -155 133 -55 14 -57 14 -101 4z"/>
<path d="M2318 2182 c-135 -166 -215 -329 -269 -546 -29 -117 -37 -376 -15
-511 53 -321 229 -621 482 -822 458 -364 1077 -388 1564 -60 98 66 252 216
323 315 293 407 336 937 112 1382 -45 88 -135 222 -188 277 l-30 32 -72 -67
c-170 -162 -404 -280 -652 -328 -121 -24 -346 -24 -473 1 -107 20 -265 72
-350 115 -90 46 -230 143 -307 214 l-71 66 -54 -68z m1268 -592 c27 -12 68
-28 91 -35 27 -8 71 -39 123 -85 89 -81 100 -104 95 -202 -2 -61 -11 -79 -71
-146 -31 -35 -48 -45 -81 -49 -36 -5 -43 -9 -48 -35 -11 -49 -72 -104 -139
-123 -57 -17 -129 -17 -168 0 -13 5 -19 0 -24 -22 -3 -15 -24 -46 -45 -68 -49
-52 -59 -80 -59 -170 0 -115 -11 -127 -67 -73 -30 29 -33 37 -33 90 0 65 10
59 -102 64 -32 1 -73 7 -92 14 -44 14 -93 69 -101 113 -5 26 -15 38 -40 50
-41 19 -58 50 -81 144 -17 71 -17 72 7 145 15 48 35 84 56 107 18 18 33 39 33
47 0 45 85 144 124 144 5 0 28 18 51 39 49 45 109 65 165 56 26 -4 47 -2 67 9
45 25 274 16 339 -14z"/>
</g>
</svg>
