<svg width="106px" height="17px" viewBox="0 0 106 17" version="1.1" xmlns="http://www.w3.org/2000/svg">
    <g id="Page-1" stroke="none" stroke-width="1" fill="none" fill-rule="evenodd">
        <g id="d_pieklustamibas-vadlinijas" transform="translate(-429.000000, -3682.000000)">
            <g id="Group-7" transform="translate(0.000000, 3625.000000)">
                <g id="Group-6" transform="translate(429.000000, 30.000000)">
                    <g id="piekļūstamības-logo" transform="translate(0.000000, 27.000000)">
                        <g id="Group-4">
                            <path d="M22.1103448,5.96868001 C22.6139065,5.96868001 23.0576119,6.07486946 23.4414745,6.28725154 C23.8253371,6.49963362 24.1225166,6.7973805 24.3330219,7.18050112 C24.5435272,7.56362174 24.6487783,8.0050367 24.6487783,8.50475924 C24.6487783,9.00448178 24.5414635,9.44173245 24.3268306,9.81652436 C24.1121978,10.1913163 23.808827,10.4828167 23.4167093,10.6910344 C23.0245916,10.8992522 22.5726312,11.0033595 22.0608144,11.0033595 L19.8938589,11.0033595 C19.8525834,11.0033595 19.8319459,11.0241809 19.8319459,11.0658245 L19.8319459,14.5388788 C19.8319459,14.5971797 19.8154359,14.642987 19.7824155,14.6763018 C19.7493951,14.7096166 19.7039926,14.7262738 19.6462069,14.7262738 L18.8289551,14.7262738 C18.7711694,14.7262738 18.7257669,14.7096166 18.6927465,14.6763018 C18.6597261,14.642987 18.6432161,14.5971797 18.6432161,14.5388788 L18.6432161,6.15607503 C18.6432161,6.09777406 18.6597261,6.05196685 18.6927465,6.01865202 C18.7257669,5.98533718 18.7711694,5.96868001 18.8289551,5.96868001 L22.1103448,5.96868001 Z M21.9493709,10.0289054 C22.403402,10.0289054 22.7686851,9.89148374 23.0452313,9.61663634 C23.3217774,9.34178894 23.4600484,8.97949553 23.4600484,8.52974524 C23.4600484,8.07166624 23.3217774,7.7031264 23.0452313,7.42411464 C22.7686851,7.14510289 22.403402,7.0055991 21.9493709,7.0055991 L19.8938589,7.0055991 C19.8525834,7.0055991 19.8319459,7.02642056 19.8319459,7.06806411 L19.8319459,9.96644037 C19.8319459,10.0080839 19.8525834,10.0289054 19.8938589,10.0289054 L21.9493709,10.0289054 Z M26.6052295,7.41786814 C26.3658313,7.41786814 26.1697754,7.34499303 26.0170558,7.19924062 C25.8643363,7.05348821 25.7879777,6.86401292 25.7879777,6.63080907 C25.7879777,6.39760522 25.8643363,6.20812993 26.0170558,6.06237752 C26.1697754,5.91662511 26.3658313,5.84375 26.6052295,5.84375 C26.8446276,5.84375 27.0386198,5.91662511 27.1872118,6.06237752 C27.3358038,6.20812993 27.4100986,6.39760522 27.4100986,6.63080907 C27.4100986,6.86401292 27.3358038,7.05348821 27.1872118,7.19924062 C27.0386198,7.34499303 26.8446276,7.41786814 26.6052295,7.41786814 Z M26.1966036,14.7262738 C26.1388178,14.7262738 26.0934154,14.7096166 26.060395,14.6763018 C26.0273745,14.642987 26.0108645,14.5971797 26.0108645,14.5388788 L26.0108645,8.55473124 C26.0108645,8.49643028 26.0273745,8.45062307 26.060395,8.41730823 C26.0934154,8.38399339 26.1388178,8.36733623 26.1966036,8.36733623 L27.0138553,8.36733623 C27.0716411,8.36733623 27.1170435,8.38399339 27.150064,8.41730823 C27.1830844,8.45062307 27.1995944,8.49643028 27.1995944,8.55473124 L27.1995944,14.5388788 C27.1995944,14.5971797 27.1830844,14.642987 27.150064,14.6763018 C27.1170435,14.7096166 27.0716411,14.7262738 27.0138553,14.7262738 L26.1966036,14.7262738 Z M31.6697139,13.8017917 C32.3383777,13.793463 32.8171669,13.5311126 33.1060958,13.0147326 C33.1473713,12.9397743 33.1927737,12.9022956 33.2423044,12.9022956 C33.2835799,12.9022956 33.3207274,12.9147885 33.3537478,12.9397746 L33.8614345,13.2520997 C33.9274754,13.2937432 33.9604953,13.347879 33.9604953,13.4145087 L33.9357301,13.5144527 C33.7128422,13.9225594 33.397089,14.2432099 32.988461,14.4764138 C32.5798331,14.7096176 32.1031077,14.8262178 31.5582704,14.8262178 C30.9721577,14.8262178 30.4768585,14.6950426 30.0723582,14.4326883 C29.6678578,14.1703339 29.3624233,13.7934655 29.1560456,13.3020717 C28.9496678,12.7940204 28.8464805,12.1985267 28.8464805,11.5155725 C28.8464805,10.9075767 28.8918829,10.4453403 28.9826891,10.1288494 C29.1312811,9.55416846 29.4284606,9.10026062 29.8742365,8.76711226 C30.3200124,8.4339639 30.860714,8.26739222 31.4963574,8.26739222 C32.2805928,8.26739222 32.8790793,8.47352467 33.2918348,8.88579577 C33.7045903,9.29806687 33.9728773,9.89564278 34.096704,10.6785414 C34.1379795,10.9867037 34.166872,11.36149 34.1833822,11.8029115 C34.1833822,11.9278422 34.1214698,11.9903066 33.9976431,11.9903066 L30.0847408,11.9903066 C30.0434652,11.9903066 30.0228277,12.011128 30.0228277,12.0527716 C30.039338,12.3692625 30.0682304,12.5941343 30.109506,12.7273936 C30.2003122,13.060542 30.3819219,13.3228924 30.6543405,13.5144527 C30.9267591,13.706013 31.2652135,13.8017917 31.6697139,13.8017917 Z M31.4963574,9.30431131 C31.1331326,9.30431131 30.8380169,9.39176144 30.6110014,9.56666433 C30.3839858,9.74156722 30.2292049,9.98309616 30.1466538,10.2912584 C30.088868,10.47449 30.0517206,10.7076904 30.0352103,10.9908665 C30.0352103,11.03251 30.0558478,11.0533315 30.0971234,11.0533315 L32.9079741,11.0533315 C32.9492497,11.0533315 32.9698871,11.03251 32.9698871,10.9908665 C32.9533769,10.7160191 32.928612,10.5119688 32.8955915,10.3787094 C32.8130404,10.0538898 32.6500044,9.7936215 32.4064787,9.59789684 C32.162953,9.40217217 31.8595823,9.30431131 31.4963574,9.30431131 Z M35.8674161,14.7262738 C35.8096303,14.7262738 35.7642279,14.7096166 35.7312075,14.6763018 C35.698187,14.642987 35.6816771,14.5971797 35.6816771,14.5388788 L35.6816771,6.16856803 C35.6816771,6.11026707 35.698187,6.06445985 35.7312075,6.03114502 C35.7642279,5.99783018 35.8096303,5.98117301 35.8674161,5.98117301 L36.6846679,5.98117301 C36.7424536,5.98117301 36.7878561,5.99783018 36.8208765,6.03114502 C36.8538969,6.06445985 36.8704069,6.11026707 36.8704069,6.16856803 L36.8704069,10.8909225 C36.8704069,10.9159086 36.8786619,10.9325657 36.8951721,10.9408945 C36.9116823,10.9492232 36.9281923,10.9408946 36.9447025,10.9159085 L39.1983362,8.46728024 C39.2561219,8.40065056 39.3304168,8.36733623 39.421223,8.36733623 L40.3746834,8.36733623 C40.4737447,8.36733623 40.5232746,8.40065056 40.5232746,8.46728024 C40.5232746,8.50892378 40.5067647,8.5505667 40.4737442,8.59221025 L38.9506841,10.3787094 C38.9259188,10.4036955 38.9217913,10.4328456 38.9383015,10.4661604 L40.7833093,14.5013998 L40.8080745,14.6013438 C40.8080745,14.6846309 40.7544171,14.7262738 40.6471007,14.7262738 L39.7803185,14.7262738 C39.6730021,14.7262738 39.6028347,14.6804666 39.5698142,14.5888508 L38.1334324,11.2407265 C38.1251772,11.2240691 38.110731,11.2136583 38.0900932,11.209494 C38.0694555,11.2053296 38.0550092,11.2115761 38.0467541,11.2282335 L36.8951721,12.5025196 C36.8786619,12.5358344 36.8704069,12.5649845 36.8704069,12.5899706 L36.8704069,14.5388788 C36.8704069,14.5971797 36.8538969,14.642987 36.8208765,14.6763018 C36.7878561,14.7096166 36.7424536,14.7262738 36.6846679,14.7262738 L35.8674161,14.7262738 Z M42.2196912,14.7262738 C42.1619054,14.7262738 42.116503,14.7096166 42.0834825,14.6763018 C42.0504621,14.642987 42.0339521,14.5971797 42.0339521,14.5388788 L42.0339521,6.16856803 C42.0339521,6.11026707 42.0504621,6.06445985 42.0834825,6.03114502 C42.116503,5.99783018 42.1619054,5.98117301 42.2196912,5.98117301 L43.0369429,5.98117301 C43.0947287,5.98117301 43.1401311,5.99783018 43.1731516,6.03114502 C43.206172,6.06445985 43.222682,6.11026707 43.222682,6.16856803 L43.222682,14.5388788 C43.222682,14.5971797 43.206172,14.642987 43.1731516,14.6763018 C43.1401311,14.7096166 43.0947287,14.7262738 43.0369429,14.7262738 L42.2196912,14.7262738 Z M41.4395872,17 C41.3405259,17 41.290996,16.9583571 41.290996,16.87507 L41.3157612,16.775126 L41.9720391,15.5508119 C42.0133147,15.4591961 42.0876095,15.4133889 42.194926,15.4133889 L42.9626473,15.4133889 C43.012178,15.4133889 43.0513892,15.4237996 43.080282,15.4446214 C43.1091749,15.4654431 43.1236211,15.492511 43.1236211,15.5258259 C43.1236211,15.5591407 43.1112387,15.5966193 43.0864733,15.6382629 L42.2939868,16.87507 C42.2444561,16.9583571 42.1701613,17 42.0710999,17 L41.4395872,17 Z M48.7329401,8.55473124 C48.7329401,8.49643028 48.74945,8.45062307 48.7824705,8.41730823 C48.8154909,8.38399339 48.8608933,8.36733623 48.9186791,8.36733623 L49.7235483,8.36733623 C49.781334,8.36733623 49.8267364,8.38399339 49.8597569,8.41730823 C49.8927773,8.45062307 49.9092873,8.49643028 49.9092873,8.55473124 L49.9092873,14.5388788 C49.9092873,14.5971797 49.8927773,14.642987 49.8597569,14.6763018 C49.8267364,14.7096166 49.781334,14.7262738 49.7235483,14.7262738 L48.9186791,14.7262738 C48.8608933,14.7262738 48.8154909,14.7096166 48.7824705,14.6763018 C48.74945,14.642987 48.7329401,14.5971797 48.7329401,14.5388788 L48.7329401,14.1640887 C48.7329401,14.1391026 48.7246851,14.1245276 48.7081749,14.1203632 C48.6916646,14.1161989 48.6751547,14.1224453 48.6586444,14.1391027 C48.3284401,14.588853 47.8248859,14.8137248 47.1479669,14.8137248 C46.7434666,14.8137248 46.3699285,14.7346033 46.0273414,14.5763578 C45.6847544,14.4181123 45.4102761,14.184912 45.2038984,13.8767497 C44.9975206,13.5685875 44.8943333,13.1938012 44.8943333,12.7523796 L44.8943333,8.55473124 C44.8943333,8.49643028 44.9108433,8.45062307 44.9438637,8.41730823 C44.9768841,8.38399339 45.0222866,8.36733623 45.0800723,8.36733623 L45.8849415,8.36733623 C45.9427273,8.36733623 45.9881297,8.38399339 46.0211501,8.41730823 C46.0541706,8.45062307 46.0706805,8.49643028 46.0706805,8.55473124 L46.0706805,12.3775896 C46.0706805,12.8106825 46.1841866,13.1521544 46.4112021,13.4020157 C46.6382176,13.6518769 46.9580983,13.7768057 47.3708538,13.7768057 C47.7836093,13.7768057 48.1138087,13.6497948 48.361462,13.3957692 C48.6091153,13.1417436 48.7329401,12.8023537 48.7329401,12.3775896 L48.7329401,8.55473124 Z M45.8849415,7.38038914 C45.8271557,7.38038914 45.7817533,7.36373197 45.7487329,7.33041713 C45.7157124,7.2971023 45.6992025,7.25129508 45.6992025,7.19299412 L45.6992025,6.73075308 C45.6992025,6.67245212 45.7157124,6.6266449 45.7487329,6.59333007 C45.7817533,6.56001523 45.8271557,6.54335806 45.8849415,6.54335806 L48.9558269,6.54335806 C49.0136127,6.54335806 49.0590151,6.56001523 49.0920355,6.59333007 C49.125056,6.6266449 49.1415659,6.67245212 49.1415659,6.73075308 L49.1415659,7.19299412 C49.1415659,7.25129508 49.125056,7.2971023 49.0920355,7.33041713 C49.0590151,7.36373197 49.0136127,7.38038914 48.9558269,7.38038914 L45.8849415,7.38038914 Z M53.8593375,14.8012318 C53.372286,14.8012318 52.940963,14.7262745 52.5653555,14.5763578 C52.189748,14.426441 51.8987598,14.2203086 51.6923821,13.9579542 C51.4860043,13.6955999 51.382817,13.4061816 51.382817,13.0896906 L51.382817,13.0147326 C51.382817,12.9564317 51.399327,12.9106245 51.4323474,12.8773096 C51.4653678,12.8439948 51.5107703,12.8273376 51.568556,12.8273376 L52.3362774,12.8273376 C52.3940631,12.8273376 52.4394656,12.8356662 52.472486,12.8523236 C52.5055064,12.868981 52.5220164,12.8898025 52.5220164,12.9147886 L52.5220164,13.0147326 C52.5220164,13.2479365 52.6479049,13.4519868 52.8996858,13.6268897 C53.1514666,13.8017926 53.4672198,13.8892427 53.8469549,13.8892427 C54.2266899,13.8892427 54.5321244,13.808039 54.7632675,13.6456292 C54.9944105,13.4832194 55.1099803,13.2770869 55.1099803,13.0272256 C55.1099803,12.7856931 55.0026655,12.6045464 54.7880327,12.4837801 C54.5733998,12.3630138 54.2266904,12.2360029 53.7478941,12.1027436 C53.2773528,11.9694842 52.8831772,11.8341447 52.5653555,11.696721 C52.2475338,11.5592973 51.9792468,11.3635756 51.7604864,11.10955 C51.541726,10.8555243 51.4323474,10.5286274 51.4323474,10.1288494 C51.4323474,9.57082588 51.6490408,9.12732877 52.082434,8.79834476 C52.5158273,8.46936076 53.0916125,8.30487122 53.8098071,8.30487122 C54.2886034,8.30487122 54.7116714,8.38191062 55.0790238,8.53599174 C55.4463762,8.69007286 55.7291095,8.9045339 55.9272321,9.1793813 C56.1253547,9.4542287 56.2244146,9.76238631 56.2244146,10.1038634 C56.2244146,10.1538356 56.2079046,10.1933964 56.1748841,10.2225469 C56.1418637,10.2516974 56.0964613,10.2662724 56.0386755,10.2662724 L55.2957194,10.2662724 C55.2379336,10.2662724 55.1925312,10.2579438 55.1595107,10.2412864 C55.1264903,10.224629 55.1099803,10.2038075 55.1099803,10.1788214 L55.1099803,10.1038634 C55.1099803,9.86233082 54.9923468,9.66036265 54.7570762,9.49795283 C54.5218055,9.335543 54.2019248,9.25433931 53.7974245,9.25433931 C53.4341996,9.25433931 53.1390839,9.32513227 52.9120684,9.46672032 C52.6850529,9.60830838 52.5715468,9.79986581 52.5715468,10.0413984 C52.5715468,10.2829309 52.6809254,10.4661598 52.8996858,10.5910904 C53.1184462,10.7160211 53.4713468,10.8492784 53.9583983,10.9908665 C54.4371947,11.1241258 54.8354977,11.255301 55.1533194,11.384396 C55.4711412,11.513491 55.7414919,11.7050484 55.9643799,11.959074 C56.1872679,12.2130997 56.2987102,12.5441609 56.2987102,12.9522676 C56.2987102,13.5186199 56.0778893,13.9683634 55.6362409,14.3015118 C55.1945926,14.6346601 54.6022973,14.8012318 53.8593375,14.8012318 Z M60.7688297,9.1668883 C60.7688297,9.22518926 60.7523197,9.27099647 60.7192992,9.30431131 C60.6862788,9.33762615 60.6408764,9.35428331 60.5830906,9.35428331 L59.3200652,9.35428331 C59.2787896,9.35428331 59.2581522,9.37510477 59.2581522,9.41674832 L59.2581522,12.6774216 C59.2581522,13.0355561 59.3345108,13.2895779 59.4872303,13.4394947 C59.6399498,13.5894114 59.8855357,13.6643687 60.2239951,13.6643687 L60.5211776,13.6643687 C60.5789634,13.6643687 60.6243658,13.6810259 60.6573862,13.7143407 C60.6904067,13.7476555 60.7069166,13.7934628 60.7069166,13.8517637 L60.7069166,14.5013998 C60.7069166,14.6180017 60.6450043,14.6846304 60.5211776,14.7012878 L60.0134909,14.7137808 C59.3778475,14.7137808 58.9031858,14.6013449 58.5894916,14.3764698 C58.2757975,14.1515946 58.1189527,13.7310011 58.1189527,13.1146767 L58.1189527,9.41674832 C58.1189527,9.37510477 58.0983153,9.35428331 58.0570397,9.35428331 L57.3759966,9.35428331 C57.3182108,9.35428331 57.2728084,9.33762615 57.239788,9.30431131 C57.2067675,9.27099647 57.1902575,9.22518926 57.1902575,9.1668883 L57.1902575,8.55473124 C57.1902575,8.49643028 57.2067675,8.45062307 57.239788,8.41730823 C57.2728084,8.38399339 57.3182108,8.36733623 57.3759966,8.36733623 L58.0570397,8.36733623 C58.0983153,8.36733623 58.1189527,8.34651477 58.1189527,8.30487122 L58.1189527,6.9056551 C58.1189527,6.84735413 58.1354627,6.80154692 58.1684831,6.76823208 C58.2015036,6.73491725 58.246906,6.71826008 58.3046918,6.71826008 L59.0724131,6.71826008 C59.1301989,6.71826008 59.1756013,6.73491725 59.2086217,6.76823208 C59.2416422,6.80154692 59.2581522,6.84735413 59.2581522,6.9056551 L59.2581522,8.30487122 C59.2581522,8.34651477 59.2787896,8.36733623 59.3200652,8.36733623 L60.5830906,8.36733623 C60.6408764,8.36733623 60.6862788,8.38399339 60.7192992,8.41730823 C60.7523197,8.45062307 60.7688297,8.49643028 60.7688297,8.55473124 L60.7688297,9.1668883 Z M64.5455234,8.26739222 C65.0490851,8.26739222 65.4886631,8.3569245 65.8642706,8.53599174 C66.2398781,8.71505899 66.5288026,8.96491651 66.7310527,9.28557181 C66.9333029,9.60622711 67.0344265,9.97060266 67.0344265,10.3787094 L67.0344265,14.5388788 C67.0344265,14.5971797 67.0179165,14.642987 66.9848961,14.6763018 C66.9518757,14.7096166 66.9064732,14.7262738 66.8486875,14.7262738 L66.0314357,14.7262738 C65.9736499,14.7262738 65.9282475,14.7096166 65.8952271,14.6763018 C65.8622066,14.642987 65.8456967,14.5971797 65.8456967,14.5388788 L65.8456967,14.1890747 C65.8456967,14.1640886 65.8374417,14.1474315 65.8209315,14.1391027 C65.8044212,14.130774 65.7879113,14.1349383 65.7714011,14.1515957 C65.540258,14.3681422 65.2657797,14.5347139 64.947958,14.6513158 C64.6301363,14.7679177 64.2854906,14.8262178 63.9140107,14.8262178 C63.3113877,14.8262178 62.8160885,14.6700569 62.4280984,14.3577303 C62.0401082,14.0454037 61.8461161,13.5727565 61.8461161,12.9397746 C61.8461161,12.2901353 62.0710644,11.7800096 62.5209679,11.409382 C62.9708714,11.0387544 63.600314,10.8534434 64.4093148,10.8534434 L65.7837837,10.8534434 C65.8250592,10.8534434 65.8456967,10.832622 65.8456967,10.7909784 L65.8456967,10.4661604 C65.8456967,10.0996972 65.7404456,9.81444321 65.5299403,9.61038984 C65.319435,9.40633647 64.9995543,9.30431131 64.5702886,9.30431131 C64.2318291,9.30431131 63.9573508,9.36677569 63.7468455,9.49170633 C63.5363403,9.61663696 63.3980692,9.79153723 63.3320284,10.0164124 C63.2990079,10.1246856 63.2288405,10.1746571 63.1215241,10.1663284 L62.2299767,10.0538914 C62.172191,10.0455627 62.1267886,10.0268234 62.0937681,9.99767287 C62.0607477,9.96852239 62.0483652,9.93312591 62.0566203,9.89148236 C62.1309163,9.41674595 62.3971396,9.02738464 62.8552982,8.72338676 C63.3134568,8.41938888 63.8768595,8.26739222 64.5455234,8.26739222 Z M64.2111931,13.8142847 C64.6487139,13.8142847 65.030507,13.6976845 65.3565839,13.4644807 C65.6826607,13.2312768 65.8456967,12.9356121 65.8456967,12.5774776 L65.8456967,11.8528835 C65.8456967,11.81124 65.8250592,11.7904185 65.7837837,11.7904185 L64.6322016,11.7904185 C64.1451502,11.7904185 63.7571658,11.8861973 63.468237,12.0777576 C63.1793082,12.2693179 63.0348459,12.5358326 63.0348459,12.8773096 C63.0348459,13.1854719 63.1442245,13.4186722 63.3629849,13.5769177 C63.5817453,13.7351632 63.8644785,13.8142847 64.2111931,13.8142847 Z M75.1821789,8.27988522 C75.8095672,8.27988522 76.3048664,8.46936051 76.6680912,8.84831677 C77.031316,9.22727303 77.2129257,9.75405598 77.2129257,10.4286814 L77.2129257,14.5388788 C77.2129257,14.5971797 77.1964158,14.642987 77.1633953,14.6763018 C77.1303749,14.7096166 77.0849725,14.7262738 77.0271867,14.7262738 L76.2223175,14.7262738 C76.1645318,14.7262738 76.1191293,14.7096166 76.0861089,14.6763018 C76.0530885,14.642987 76.0365785,14.5971797 76.0365785,14.5388788 L76.0365785,10.6785414 C76.0365785,10.262106 75.9230724,9.93104476 75.6960569,9.68534784 C75.4690414,9.43965093 75.1656707,9.31680431 74.7859356,9.31680431 C74.4062006,9.31680431 74.0966386,9.43756878 73.8572405,9.67910134 C73.6178423,9.92063391 73.498145,10.2454487 73.498145,10.6535554 L73.498145,14.5388788 C73.498145,14.5971797 73.481635,14.642987 73.4486146,14.6763018 C73.4155941,14.7096166 73.3701917,14.7262738 73.3124059,14.7262738 L72.5075368,14.7262738 C72.449751,14.7262738 72.4043486,14.7096166 72.3713282,14.6763018 C72.3383077,14.642987 72.3217978,14.5971797 72.3217978,14.5388788 L72.3217978,10.6785414 C72.3217978,10.262106 72.2082917,9.93104476 71.9812762,9.68534784 C71.7542607,9.43965093 71.4508899,9.31680431 71.0711549,9.31680431 C70.6914199,9.31680431 70.3880491,9.43756878 70.1610336,9.67910134 C69.9340181,9.92063391 69.8205121,10.2454487 69.8205121,10.6535554 L69.8205121,14.5388788 C69.8205121,14.5971797 69.8040021,14.642987 69.7709816,14.6763018 C69.7379612,14.7096166 69.6925588,14.7262738 69.634773,14.7262738 L68.8175213,14.7262738 C68.7597355,14.7262738 68.7143331,14.7096166 68.6813126,14.6763018 C68.6482922,14.642987 68.6317822,14.5971797 68.6317822,14.5388788 L68.6317822,8.55473124 C68.6317822,8.49643028 68.6482922,8.45062307 68.6813126,8.41730823 C68.7143331,8.38399339 68.7597355,8.36733623 68.8175213,8.36733623 L69.634773,8.36733623 C69.6925588,8.36733623 69.7379612,8.38399339 69.7709816,8.41730823 C69.8040021,8.45062307 69.8205121,8.49643028 69.8205121,8.55473124 L69.8205121,8.89204227 C69.8205121,8.9170284 69.828767,8.93368557 69.8452773,8.94201428 C69.8617875,8.95034299 69.8782975,8.94617869 69.8948077,8.92952128 C70.2662876,8.49642841 70.7904792,8.27988522 71.4673982,8.27988522 C71.8801537,8.27988522 72.2371818,8.36108891 72.5384933,8.52349874 C72.8398048,8.68590857 73.0730081,8.92119107 73.2381103,9.2293533 C73.2628757,9.26266814 73.2917681,9.26266814 73.3247886,9.2293533 C73.5146561,8.90453365 73.7726244,8.66508686 74.0987012,8.51100574 C74.424778,8.35692462 74.7859337,8.27988522 75.1821789,8.27988522 Z M78.9836379,14.7262738 C78.9258521,14.7262738 78.8804497,14.7096166 78.8474293,14.6763018 C78.8144088,14.642987 78.7978988,14.5971797 78.7978988,14.5388788 L78.7978988,8.55473124 C78.7978988,8.49643028 78.8144088,8.45062307 78.8474293,8.41730823 C78.8804497,8.38399339 78.9258521,8.36733623 78.9836379,8.36733623 L79.8008896,8.36733623 C79.8586754,8.36733623 79.9040778,8.38399339 79.9370983,8.41730823 C79.9701187,8.45062307 79.9866287,8.49643028 79.9866287,8.55473124 L79.9866287,14.5388788 C79.9866287,14.5971797 79.9701187,14.642987 79.9370983,14.6763018 C79.9040778,14.7096166 79.8586754,14.7262738 79.8008896,14.7262738 L78.9836379,14.7262738 Z M77.8444385,7.25545913 C77.7866527,7.25545913 77.7412503,7.23880196 77.7082298,7.20548712 C77.6752094,7.17217229 77.6586994,7.12636507 77.6586994,7.06806411 L77.6586994,6.60582307 C77.6586994,6.5475221 77.6752094,6.50171489 77.7082298,6.46840006 C77.7412503,6.43508522 77.7866527,6.41842805 77.8444385,6.41842805 L80.9153239,6.41842805 C80.9731096,6.41842805 81.0185121,6.43508522 81.0515325,6.46840006 C81.0845529,6.50171489 81.1010629,6.5475221 81.1010629,6.60582307 L81.1010629,7.06806411 C81.1010629,7.12636507 81.0845529,7.17217229 81.0515325,7.20548712 C81.0185121,7.23880196 80.9731096,7.25545913 80.9153239,7.25545913 L77.8444385,7.25545913 Z M86.7722948,10.0164124 C86.8961215,10.4161904 86.9580339,10.9200697 86.9580339,11.5280655 C86.9580339,12.1777048 86.883739,12.7107342 86.735147,13.1271697 C86.5535346,13.6685357 86.2666739,14.0870471 85.8745561,14.3827163 C85.4824384,14.6783854 84.989203,14.8262178 84.3948352,14.8262178 C84.1059063,14.8262178 83.839683,14.7699999 83.5961573,14.6575623 C83.3526316,14.5451247 83.1400657,14.3847995 82.9584533,14.1765817 C82.941943,14.1599243 82.9254331,14.15576 82.9089229,14.1640887 C82.8924126,14.1724175 82.8841577,14.1890746 82.8841577,14.2140608 L82.8841577,14.5388788 C82.8841577,14.5971797 82.8676477,14.642987 82.8346272,14.6763018 C82.8016068,14.7096166 82.7562044,14.7262738 82.6984186,14.7262738 L81.8811669,14.7262738 C81.8233811,14.7262738 81.7779787,14.7096166 81.7449582,14.6763018 C81.7119378,14.642987 81.6954278,14.5971797 81.6954278,14.5388788 L81.6954278,6.16856803 C81.6954278,6.11026707 81.7119378,6.06445985 81.7449582,6.03114502 C81.7779787,5.99783018 81.8233811,5.98117301 81.8811669,5.98117301 L82.6984186,5.98117301 C82.7562044,5.98117301 82.8016068,5.99783018 82.8346272,6.03114502 C82.8676477,6.06445985 82.8841577,6.11026707 82.8841577,6.16856803 L82.8841577,8.87954927 C82.8841577,8.9045354 82.8924126,8.91911042 82.9089229,8.92327478 C82.9254331,8.92743913 82.941943,8.92119269 82.9584533,8.90453527 C83.1400657,8.69631755 83.3526316,8.53807445 83.5961573,8.42980123 C83.839683,8.32152801 84.1059063,8.26739222 84.3948352,8.26739222 C85.0057133,8.26739222 85.5113311,8.42147102 85.911704,8.72963326 C86.3120768,9.03779549 86.5989375,9.46671758 86.7722948,10.0164124 Z M85.459739,13.1021837 C85.6661167,12.7107343 85.769304,12.1943621 85.769304,11.5530515 C85.769304,10.8700974 85.6372243,10.3204108 85.3730607,9.90397536 C85.1171524,9.50419733 84.7498055,9.30431131 84.2710091,9.30431131 C83.808723,9.30431131 83.4578861,9.51669021 83.2184879,9.94145437 C83.0038551,10.324575 82.8965403,10.8576044 82.8965403,11.5405585 C82.8965403,12.2235127 82.9956001,12.7482135 83.1937227,13.1146767 C83.441376,13.5644269 83.8004679,13.7892987 84.2710091,13.7892987 C84.8241015,13.7892987 85.2203408,13.5602626 85.459739,13.1021837 Z M90.7718754,8.26739222 C91.2754371,8.26739222 91.7150151,8.3569245 92.0906226,8.53599174 C92.4662301,8.71505899 92.7551546,8.96491651 92.9574048,9.28557181 C93.1596549,9.60622711 93.2607785,9.97060266 93.2607785,10.3787094 L93.2607785,14.5388788 C93.2607785,14.5971797 93.2442685,14.642987 93.2112481,14.6763018 C93.1782277,14.7096166 93.1328252,14.7262738 93.0750395,14.7262738 L92.2577877,14.7262738 C92.2000019,14.7262738 92.1545995,14.7096166 92.1215791,14.6763018 C92.0885587,14.642987 92.0720487,14.5971797 92.0720487,14.5388788 L92.0720487,14.1890747 C92.0720487,14.1640886 92.0637937,14.1474315 92.0472835,14.1391027 C92.0307733,14.130774 92.0142633,14.1349383 91.9977531,14.1515957 C91.76661,14.3681422 91.4921317,14.5347139 91.17431,14.6513158 C90.8564883,14.7679177 90.5118426,14.8262178 90.1403627,14.8262178 C89.5377397,14.8262178 89.0424406,14.6700569 88.6544504,14.3577303 C88.2664602,14.0454037 88.0724681,13.5727565 88.0724681,12.9397746 C88.0724681,12.2901353 88.2974164,11.7800096 88.7473199,11.409382 C89.1972234,11.0387544 89.8266661,10.8534434 90.6356668,10.8534434 L92.0101357,10.8534434 C92.0514112,10.8534434 92.0720487,10.832622 92.0720487,10.7909784 L92.0720487,10.4661604 C92.0720487,10.0996972 91.9667976,9.81444321 91.7562923,9.61038984 C91.545787,9.40633647 91.2259063,9.30431131 90.7966406,9.30431131 C90.4581811,9.30431131 90.1837029,9.36677569 89.9731976,9.49170633 C89.7626923,9.61663696 89.6244213,9.79153723 89.5583804,10.0164124 C89.5253599,10.1246856 89.4551926,10.1746571 89.3478761,10.1663284 L88.4563288,10.0538914 C88.398543,10.0455627 88.3531406,10.0268234 88.3201201,9.99767287 C88.2870997,9.96852239 88.2747172,9.93312591 88.2829723,9.89148236 C88.3572683,9.41674595 88.6234916,9.02738464 89.0816502,8.72338676 C89.5398088,8.41938888 90.1032115,8.26739222 90.7718754,8.26739222 Z M90.4375452,13.8142847 C90.875066,13.8142847 91.2568591,13.6976845 91.5829359,13.4644807 C91.9090127,13.2312768 92.0720487,12.9356121 92.0720487,12.5774776 L92.0720487,11.8528835 C92.0720487,11.81124 92.0514112,11.7904185 92.0101357,11.7904185 L90.8585536,11.7904185 C90.3715022,11.7904185 89.9835178,11.8861973 89.694589,12.0777576 C89.4056602,12.2693179 89.2611979,12.5358326 89.2611979,12.8773096 C89.2611979,13.1854719 89.3705765,13.4186722 89.5893369,13.5769177 C89.8080973,13.7351632 90.0908306,13.8142847 90.4375452,13.8142847 Z M95.6506208,14.7262738 C95.3947124,14.7262738 95.1821465,14.642988 95.0129168,14.4764138 C94.843687,14.3098396 94.7590734,14.101625 94.7590734,13.8517637 C94.7590734,13.6185599 94.8498783,13.4186738 95.0314907,13.2520997 C95.2131031,13.0855255 95.4194777,13.0022396 95.6506208,13.0022396 C95.8817639,13.0022396 96.0902022,13.0855255 96.2759422,13.2520997 C96.4616822,13.4186738 96.5545508,13.6185599 96.5545508,13.8517637 C96.5545508,14.0932963 96.4678734,14.2994287 96.2945161,14.4701673 C96.1211588,14.6409058 95.9065292,14.7262738 95.6506208,14.7262738 Z M98.4119411,14.7262738 C98.3541554,14.7262738 98.308753,14.7096166 98.2757325,14.6763018 C98.2427121,14.642987 98.2262021,14.5971797 98.2262021,14.5388788 L98.2262021,6.16856803 C98.2262021,6.11026707 98.2427121,6.06445985 98.2757325,6.03114502 C98.308753,5.99783018 98.3541554,5.98117301 98.4119411,5.98117301 L99.2291929,5.98117301 C99.2869787,5.98117301 99.3323811,5.99783018 99.3654015,6.03114502 C99.398422,6.06445985 99.4149319,6.11026707 99.4149319,6.16856803 L99.4149319,14.5388788 C99.4149319,14.5971797 99.398422,14.642987 99.3654015,14.6763018 C99.3323811,14.7096166 99.2869787,14.7262738 99.2291929,14.7262738 L98.4119411,14.7262738 Z M102.869678,14.7262738 C102.762362,14.7262738 102.692194,14.6763023 102.659174,14.5763578 L100.677957,8.57971725 C100.669702,8.56305983 100.665575,8.53807407 100.665575,8.50475924 C100.665575,8.41314344 100.719232,8.36733623 100.826549,8.36733623 L101.742861,8.36733623 C101.792392,8.36733623 101.837794,8.38191125 101.87907,8.41106173 C101.920345,8.44021221 101.94511,8.47977299 101.953365,8.52974524 L103.303069,13.0022396 C103.311324,13.0355545 103.323707,13.0501295 103.340217,13.0459651 C103.356727,13.0418008 103.36911,13.0230615 103.377365,12.9897466 L104.714686,8.52974524 C104.722941,8.47977299 104.747706,8.44021221 104.788981,8.41106173 C104.830257,8.38191125 104.875659,8.36733623 104.92519,8.36733623 L105.841503,8.37982923 C105.907543,8.37982923 105.952946,8.39856854 105.977711,8.43604773 C106.002477,8.47352692 106.006604,8.52558057 105.990094,8.59221025 L104.02126,14.5763578 C103.98824,14.6763023 103.918072,14.7262738 103.810756,14.7262738 L102.869678,14.7262738 Z" id="Piekļūstamība.lv" fill="#FFFFFF"></path>
                            <path d="M1.30183785,7.96875 C0.494284631,7.12218146 0,5.98246625 0,4.72955939 C0,2.11922744 2.1478108,0 4.79360043,0 C7.4401289,0 9.5879397,2.11922744 9.5879397,4.72955939 C9.5879397,5.98246625 9.09365507,7.12218146 8.28610185,7.96875 C7.4113141,7.05155513 6.17006122,6.4784541 4.79360043,6.4784541 C3.41787848,6.4784541 2.1766256,7.05155513 1.30183785,7.96875 Z" id="Fill-1" fill="#FFFFFF"></path>
                            <path d="M8.52261307,1.29872573 C9.37173705,0.493598301 10.5146199,0 11.7707681,0 C14.3875606,0 16.5125628,2.14238904 16.5125628,4.78125 C16.5125628,7.42011096 14.3875606,9.5625 11.7707681,9.5625 C10.5146199,9.5625 9.37173705,9.0689017 8.52261307,8.26377427 C9.44261917,7.39152219 10.0169836,6.15351075 10.0169836,4.78125 C10.0169836,3.40898925 9.44261917,2.17097781 8.52261307,1.29872573 Z" id="Fill-2" fill="#FFFFFF"></path>
                            <path d="M15.2100865,8.5 C16.0175775,9.34664142 16.5125628,10.4863566 16.5125628,11.7392635 C16.5125628,14.3495226 14.3641787,16.46875 11.718593,16.46875 C9.07226842,16.46875 6.92462312,14.3495226 6.92462312,11.7392635 C6.92462312,10.4863566 7.41886966,9.34664142 8.22636065,8.5 C9.10108099,9.41726776 10.3422382,9.99036878 11.718593,9.99036878 C13.0942089,9.99036878 14.3353662,9.41726776 15.2100865,8.5 Z" id="Fill-3" fill="#FFFFFF"></path>
                            <path d="M7.98994975,15.1700879 C7.1407481,15.9752216 5.99776069,16.46875 4.74149766,16.46875 C2.12446574,16.46875 0,14.3263444 0,11.6875368 C0,9.04865555 2.12446574,6.90625 4.74149766,6.90625 C5.99776069,6.90625 7.1407481,7.39977842 7.98994975,8.20491205 C7.0698595,9.07724454 6.49544255,10.3152655 6.49544255,11.6875368 C6.49544255,13.0598082 7.0698595,14.2978291 7.98994975,15.1700879 Z" id="Fill-4" fill="#FFFFFF"></path>
                            <path d="M5.85929648,11.1126729 C5.85929648,10.263108 5.2620984,9.5625 4.52763819,9.5625 C3.79317798,9.5625 3.1959799,10.263108 3.1959799,11.1126729 C3.1959799,11.5023163 3.25850244,11.8870844 3.31886903,12.2591769 C3.37707968,12.6187438 3.43816492,12.9905363 3.43816492,13.3538534 C3.43816492,13.8944789 3.81833073,14.34375 4.28545317,14.34375 C4.75257561,14.34375 5.13274142,13.8944789 5.13274142,13.3538534 C5.13274142,13.2878503 5.12699222,13.2214722 5.11549382,13.1565191 C5.05656453,12.8224534 5.2692849,12.4337101 5.46906958,12.2022492 C5.72059705,11.9113105 5.85929648,11.5242923 5.85929648,11.1126729 Z M5.12699222,11.8060806 L4.95523489,11.6079963 C5.10399542,11.4360882 5.16364337,11.198177 5.11836842,10.9552405 C5.06950023,10.6917531 4.8733088,10.4736429 4.64190353,10.4245156 C4.25095797,10.3426867 3.92181631,10.689728 3.92181631,11.1126729 C3.92181631,11.1593251 3.92325361,11.2064274 3.92540956,11.2539796 C4.16471998,11.2675552 4.38606416,11.3961113 4.53913659,11.6115964 C4.83809495,12.0343163 4.69580227,12.494238 4.69580227,12.5343649 C4.65555788,12.7656757 4.47877,12.9336836 4.27467342,12.9336836 C4.06482765,12.9336836 3.88660247,12.7570503 3.85138862,12.5138889 C3.83342237,12.3930582 3.81401883,12.2736526 3.79461528,12.155597 C3.73568599,11.7925799 3.68034994,11.4498888 3.68034994,11.1126729 C3.68034994,10.5044693 4.15681484,10.0362973 4.68574117,10.1490276 C5.01632013,10.2189309 5.2850952,10.51932 5.35480424,10.8964378 C5.41660814,11.2290784 5.3310888,11.5691444 5.12699222,11.8060806 Z" id="Fill-5" fill="#2C2C2C"></path>
                            <path d="M14.880632,4.60766958 C14.8466039,4.55568902 14.7898902,4.52706506 14.7195654,4.52706506 C14.588746,4.5274809 14.4314603,4.57502579 14.3082027,4.65112533 C14.1955317,4.72126443 14.0314403,4.85128514 13.8930591,5.07293026 C13.8673489,5.11458401 13.8242466,5.14279213 13.7788757,5.14944564 C13.7788757,5.13981191 13.7788757,5.12879203 13.7788757,5.11846523 C13.7788757,5.09614824 13.7788757,5.06967281 13.7773633,5.04042508 L13.7773633,3.44774068 C13.7773633,3.2890267 13.6367136,3.15997629 13.4635481,3.15997629 C13.2903825,3.15997629 13.1497328,3.2890267 13.1497328,3.44774068 L13.1497328,4.5630356 C13.1497328,4.58278822 13.1323406,4.59900615 13.1104113,4.59900615 C13.0884821,4.59900615 13.0710899,4.58278822 13.0710899,4.5630356 L13.0710899,2.94408369 C13.0710899,2.78536971 12.9304402,2.65625 12.7572746,2.65625 C12.5841091,2.65625 12.4434593,2.78536971 12.4434593,2.94408369 L12.4434593,4.5630356 C12.4434593,4.58278822 12.425311,4.59900615 12.4041379,4.59900615 C12.3822086,4.59900615 12.3648165,4.58278822 12.3648165,4.5630356 L12.3648165,3.26788794 C12.3648165,3.12899588 12.2415589,3.01602479 12.0895664,3.01602479 C11.9383302,3.01602479 11.8150726,3.12899588 11.8150726,3.26788794 L11.8150726,4.7069178 C11.8150726,4.72673972 11.7976804,4.74288835 11.7757511,4.74288835 C11.7545781,4.74288835 11.7364297,4.72673972 11.7364297,4.7069178 L11.7364297,3.80751547 C11.7364297,3.66862341 11.6131721,3.55572163 11.4611797,3.55572163 C11.3091872,3.55572163 11.1859296,3.66862341 11.1859296,3.80751547 L11.1866858,5.76441034 C11.262304,6.77054608 11.9360616,6.90625 12.5841091,6.90625 C13.1217541,6.90625 13.604954,6.66187205 13.8423949,6.27132477 C13.8733984,6.22599772 13.9558222,6.10671966 14.0541257,5.96526323 C14.2998847,5.6117261 14.505566,5.31474383 14.5358133,5.26193158 C14.6038696,5.14431689 14.6794878,5.05248457 14.7543497,4.99620695 C14.822406,4.945266 14.863996,4.88025564 14.8980242,4.82321564 C14.9154164,4.79355207 14.93054,4.6845315 14.880632,4.60766958 Z" id="Fill-6" fill="#2C2C2C"></path>
                            <path d="M4.79431157,3.1875 C3.61809529,3.1875 2.66331658,4.51558982 2.66331658,4.51558982 C2.66331658,4.51558982 3.61741184,5.84375 4.79362812,5.84375 C5.97052786,5.84375 6.92462312,4.51558982 6.92462312,4.51558982 C6.92462312,4.51558982 5.97121131,3.1875 4.79431157,3.1875 Z M4.78611018,5.54783721 C4.23251623,5.54783721 3.78349002,5.08567574 3.78349002,4.51558982 C3.78349002,3.94557426 4.23251623,3.48341279 4.78611018,3.48341279 C5.33970413,3.48341279 5.78873034,3.94557426 5.78873034,4.51558982 C5.78873034,5.08567574 5.33970413,5.54783721 4.78611018,5.54783721 Z" id="Fill-7" fill="#2C2C2C"></path>
                            <path d="M4.79396985,3.984375 C5.08782933,3.984375 5.32663317,4.22242332 5.32663317,4.51559068 C5.32663317,4.80882668 5.08782933,5.046875 4.79396985,5.046875 C4.49942218,5.046875 4.26130653,4.80882668 4.26130653,4.51559068 C4.26130653,4.22242332 4.49942218,3.984375 4.79396985,3.984375 Z" id="Fill-8" fill="#2C2C2C"></path>
                            <path d="M14.3590148,11.9855796 C14.4154798,11.8034165 14.3658821,11.5738084 14.2132739,11.396009 C14.1468893,11.3189705 14.0690591,11.2604974 13.9881767,11.2224145 C13.9645224,11.1825068 13.937053,11.1434718 13.9050052,11.1064203 C13.7684208,10.9471069 13.5875801,10.8615791 13.4220001,10.8606271 C13.3060179,10.7678794 13.1488314,10.6975054 12.9702797,10.6685465 C12.8298801,10.6456968 12.6948218,10.6514092 12.5765504,10.679892 C12.4735399,10.6333198 12.3522163,10.6142784 12.2255515,10.6309397 C12.0927823,10.648553 11.976037,10.7017897 11.8859981,10.7783522 C11.7448355,10.7117864 11.5624686,10.7079782 11.3884952,10.7826365 C11.2389391,10.846822 11.1237199,10.9561516 11.0588614,11.0821425 C10.9428791,11.1088005 10.8253708,11.1729861 10.7254124,11.272795 C10.5834867,11.414495 10.5079456,11.5961821 10.5087087,11.7616047 C10.3354983,11.8614136 10.2256204,12.0331039 10.2340138,12.2161398 C10.1874683,12.28937 10.1531315,12.3754532 10.1348185,12.4700257 C10.1027707,12.6340994 10.126425,12.7928575 10.1905205,12.9183723 C10.1859422,13.195584 10.3354983,13.4347921 10.5605955,13.4813643 C10.5750933,13.4842205 10.5895911,13.4866007 10.6048519,13.4880288 C10.5964584,13.5455498 10.5979845,13.6040229 10.6094301,13.662496 C10.6735256,14.000561 11.0466528,14.2083507 11.4426712,14.1265518 C11.4609841,14.1227436 11.4785341,14.1184592 11.496084,14.1136989 C11.5548382,14.212159 11.6776879,14.1698711 11.6776879,14.1698711 L11.6776879,14.5340387 C11.6776879,14.5729943 11.6914226,14.6101252 11.717366,14.638608 L11.9111785,14.8511581 C11.9569609,14.9010625 12.0370803,14.8673433 12.0370803,14.7988735 L12.0370803,14.3871023 C12.0492889,14.0157941 12.180532,13.8322822 12.2926991,13.7623843 C12.4430182,13.6677324 12.4407291,13.4708915 12.4399661,13.3990894 C12.5590005,13.464227 12.7467086,13.5013578 12.9038951,13.4827924 C13.6142865,13.3976613 13.6509125,12.9013143 13.6745668,12.8199915 C13.881351,12.8361767 14.0713482,12.7448572 14.1537567,12.5694379 C14.1652023,12.544684 14.1743588,12.5190574 14.1812262,12.4933514 C14.2498999,12.4510636 14.3056019,12.3906863 14.3414648,12.3145999 C14.3902995,12.2118554 14.3933516,12.0958613 14.3590148,11.9855796 Z" id="Fill-9" fill="#2C2C2C"></path>
                        </g>
                    </g>
                </g>
            </g>
        </g>
    </g>
</svg>
