<svg width="70px" height="12px" viewBox="0 0 70 12" version="1.1" xmlns="http://www.w3.org/2000/svg">
    <g id="Page-1" stroke="none" stroke-width="1" fill="none" fill-rule="evenodd">
        <g id="d_pieklustamibas-vadlinijas" transform="translate(-761.000000, -3685.000000)" fill="#FFFFFF">
            <g id="Group-7" transform="translate(0.000000, 3625.000000)">
                <g id="Group-6" transform="translate(429.000000, 30.000000)">
                    <g id="riseba" transform="translate(332.000000, 30.000000)">
                        <g id="Group-11">
                            <path d="M30.4342323,11.1805312 L27.6964545,6.610625 C27.4192828,6.60508333 27.0350606,6.58780208 26.5409596,6.55732292 L26.5409596,11.1805312 L24.6479192,11.1805312 L24.6479192,0.113458333 C24.7521414,0.113458333 25.1461919,0.0941354167 25.8334646,0.0567291667 C26.5186162,0.0186666667 27.0721818,0 27.4927475,0 C30.098303,0 31.4007273,1.08784375 31.4007273,3.26345833 C31.4007273,3.91876042 31.2215556,4.51529167 30.8618687,5.05429167 C30.5028182,5.59270833 30.0486667,5.97260417 29.5034444,6.1954375 L32.5352222,11.1805312 L30.4342323,11.1805312 Z M26.5409596,1.82065625 L26.5409596,4.8951875 C26.8761818,4.92559375 27.1330606,4.94017708 27.3108182,4.94017708 C28.0722626,4.94017708 28.6286566,4.82526042 28.9813434,4.59345833 C29.334101,4.3623125 29.5104444,3.91117708 29.5104444,3.24129167 C29.5104444,2.69667708 29.320101,2.31678125 28.9428788,2.10021875 C28.5642424,1.88358333 27.9693838,1.77566667 27.1554747,1.77566667 C26.9608889,1.77566667 26.7544242,1.79090625 26.5409596,1.82065625 Z" id="Fill-1"></path>
                            <polygon id="Fill-2" points="33.5211616 11.1805312 35.4929697 11.1805312 35.4929697 0 33.5211616 0"></polygon>
                            <path d="M37.4647778,10.3976979 L38.1584848,8.67934375 C38.9004848,9.20995833 39.6303232,9.47566667 40.3477879,9.47566667 C41.4500404,9.47566667 42.0007778,9.08220833 42.0007778,8.29536458 C42.0007778,7.92626042 41.871596,7.574 41.6117475,7.23938542 C41.351899,6.90477083 40.8155152,6.52961458 40.0049293,6.11384375 C39.1928586,5.69880208 38.6471414,5.35675 38.3641717,5.08834375 C38.0819798,4.8199375 37.8661111,4.50158333 37.7152929,4.13247917 C37.5622121,3.76403125 37.4864141,3.35504167 37.4864141,2.90755208 C37.4864141,2.072 37.7852929,1.3776875 38.3858788,0.826729167 C38.9856869,0.27584375 39.7551919,0 40.6942525,0 C41.9177677,0 42.8157475,0.233916667 43.3896061,0.701020833 L42.8186465,2.35520833 C42.1581717,1.87184375 41.4630505,1.63121875 40.7303838,1.63121875 C40.2965253,1.63121875 39.9608788,1.74817708 39.7226667,1.98136458 C39.4844545,2.21528125 39.3653838,2.51883333 39.3653838,2.89333333 C39.3653838,3.51254167 40.0373838,4.15748958 41.3807475,4.82671875 C42.0881717,5.18094792 42.5984646,5.50746875 42.9124747,5.80423958 C43.225,6.10232292 43.464697,6.44911458 43.6278182,6.84461458 C43.7916465,7.24142708 43.8732424,7.68220833 43.8732424,8.16958333 C43.8732424,9.04567708 43.534697,9.76565625 42.8583131,10.3314896 C42.182,10.8973229 41.2746162,11.1805312 40.1384949,11.1805312 C39.1502929,11.1805312 38.2595253,10.9189062 37.4647778,10.3976979" id="Fill-3"></path>
                            <polygon id="Fill-4" points="47.1353838 1.76232292 47.1353838 4.38025 50.4526061 4.38025 50.4526061 6.06703125 47.1353838 6.06703125 47.1353838 9.41616667 51.6865859 9.41616667 51.6865859 11.1805312 45.3520808 11.1805312 45.3520808 0 51.7605455 0 51.7605455 1.76232292"></polygon>
                            <path d="M56.3666869,11.1805312 L53.2394545,11.1805312 L53.2394545,0.106020833 C54.6176061,0.0353645833 55.582404,0 56.1366061,0 C57.1969293,0 58.0265354,0.246020833 58.6239394,0.737989583 C59.2220505,1.22930208 59.5204343,1.93192708 59.5204343,2.84447917 C59.5204343,3.72173958 59.0923737,4.41539583 58.2363232,4.92471875 C59.5065051,5.4035625 60.1408182,6.39165625 60.1408182,7.88980208 C60.1408182,8.89940625 59.7901818,9.69973958 59.0874949,10.2921875 C58.3848081,10.8846354 57.4778485,11.1805312 56.3666869,11.1805312 M55.0547172,1.67970833 L55.0547172,4.3343125 C55.3335859,4.35509375 55.6270202,4.36552083 55.9337475,4.36552083 C57.115404,4.36552083 57.7065152,3.88325 57.7065152,2.92075 C57.7065152,2.06842708 57.1683636,1.64222917 56.0941111,1.64222917 C55.8096566,1.64222917 55.4631919,1.65477083 55.0547172,1.67970833 M55.0547172,5.87059375 L55.0547172,9.531375 C55.4221111,9.56666667 55.7190808,9.58402083 55.9477475,9.58402083 C56.7577677,9.58402083 57.344,9.43570833 57.7106869,9.1385 C58.0753232,8.84121875 58.2579596,8.34640625 58.2579596,7.65559375 C58.2579596,7.02501042 58.0878384,6.56629167 57.7476667,6.27870833 C57.4081313,5.991125 56.814899,5.84769792 55.9693131,5.84769792 C55.7922626,5.84769792 55.4869495,5.85535417 55.0547172,5.87059375" id="Fill-5"></path>
                            <path d="M68.0217576,11.1805312 L67.2847071,8.94461458 L63.8234545,8.94461458 L63.1208384,11.1805312 L61.1267576,11.1805312 L65.1535253,0 L65.9395051,0 L70,11.1805312 L68.0217576,11.1805312 Z M65.5468687,3.37261458 L64.3338889,7.44588542 L66.7598485,7.44588542 L65.5468687,3.37261458 Z" id="Fill-6"></path>
                            <path d="M10.3522222,10.4691562 C10.3392828,9.80196875 11.2330909,9.23642708 12.3034545,9.23642708 C13.4149697,9.22126042 14.2807071,9.78395833 14.2957677,10.451875 C14.2957677,11.1190625 13.4293232,11.6493854 12.3171717,11.6666667 C11.2487879,11.6666667 10.3522222,11.1370729 10.3522222,10.4691562" id="Fill-7"></path>
                            <path d="M5.42252525,8.682625 L8.4680202,10.2083333 C8.4680202,10.2083333 10.0539798,8.58528125 12.346303,8.53475 C14.6645758,8.48421875 15.8527374,9.25297917 15.8527374,9.25297917 L18.7324242,7.87879167 C18.7324242,7.87879167 18.7324242,7.47541667 18.1451313,7.40877083 C17.5564242,7.34146875 9.31233333,6.80553125 9.31233333,6.80553125 L5.42252525,8.682625 Z" id="Fill-8"></path>
                            <path d="M3.30838384,7.29166667 C3.30838384,7.29166667 8.06081818,5.24358333 9.05425253,4.80440625 C10.0455657,4.36522917 11.0182828,3.5756875 9.74407071,3.13651042 C8.56863636,2.73116667 7.11320202,2.939125 6.0309596,3.33323958 C4.94793939,3.72873958 0,5.85163542 0,5.85163542 L3.30838384,7.29166667 Z" id="Fill-9"></path>
                            <path d="M3.94368687,2.6149375 L9.58059596,0 L22.6760404,5.83333333 L12.6804646,5.26166667 C12.6804646,5.26166667 13.1376566,4.93602083 13.6514848,4.51842708 C14.1660202,4.10083333 15.3414545,2.6149375 12.8422424,1.71828125 C10.3443737,0.8203125 6.73060606,1.59804167 5.09734343,2.15075 C4.3279798,2.41222917 3.94368687,2.6149375 3.94368687,2.6149375" id="Fill-10"></path>
                        </g>
                    </g>
                </g>
            </g>
        </g>
    </g>
</svg>
